<svg id="レイヤー_1" data-name="レイヤー 1" xmlns="http://www.w3.org/2000/svg" viewBox="0 0 180 180"><defs><style>.cls-1{fill:#00355f;}.cls-2{font-size:25px;fill:#fff;font-family:HiraKakuStdN-W8-83pv-RKSJ-H, Hiragino Kaku Gothic StdN;}</style></defs><title>アートボード 1</title><rect class="cls-1" x="37.5" y="37.5" width="106" height="106" rx="11.5"/><path d="M132,38a11,11,0,0,1,11,11v83a11,11,0,0,1-11,11H49a11,11,0,0,1-11-11V49A11,11,0,0,1,49,38h83m0-1H49A12,12,0,0,0,37,49v83a12,12,0,0,0,12,12h83a12,12,0,0,0,12-12V49a12,12,0,0,0-12-12Z"/><text class="cls-2" transform="translate(66.84 99.19)">GM</text></svg>